<svg xmlns="http://www.w3.org/2000/svg" version="1.1" id="svg5" xml:space="preserve" viewBox="0 0 286.77 345.25"><g id="layer1" transform="translate(-514.771 -278.322)"><g id="g3740" transform="translate(-253.12 -33.969)"><path id="path459" style="display:inline;fill:#fdd742;fill-opacity:1;stroke-width:0" d="M1032.753 403.787c0 25.266-5.032 52.523-27.34 69.08-22.308 16.558-59.153 26.799-93.194 26.799-34.04 0-67.05-7.502-89.358-24.06-22.308-16.557-32.819-45.457-32.819-70.723s16.674-47.866 38.023-64.697c21.35-16.832 47.374-27.895 81.415-27.895 34.04 0 67.05 11.885 89.358 28.442 22.308 16.558 33.915 37.788 33.915 63.054z"/><path id="path191" style="fill:#f9bc2a;fill-opacity:1" d="M909.48 312.291c-34.04 0-60.066 11.063-81.416 27.895-21.349 16.831-38.021 39.431-38.021 64.697 0 2.54.136 5.123.35 7.72.05-16.524 4.485-31.345 13.738-45.68 7.858-12.173 10.538-14.452 20.81-17.714 12.543-3.983 22.025-5.4 36.147-5.398 10.523 0 29.056 2.265 31.648 3.867.486.3-1.725 2.467-4.914 4.814-24.801 18.258-38.656 44.89-39.974 76.844l-.526 12.75H861.4l.655-9.75c1.736-25.876 8.604-42.815 23.953-59.07 4.852-5.14 15.398-13.088 21.33-16.079l4.25-2.142v144.041l-4.25-.137c-25.195-.815-53.357-7.067-70.197-15.584-11.404-5.767-21.743-14.072-29.62-23.369 4.298 5.875 9.386 11.192 15.34 15.611 22.308 16.558 55.317 24.059 89.358 24.059 34.04 0 70.885-10.241 93.193-26.799 22.308-16.557 27.34-43.814 27.34-69.08s-11.606-46.497-33.914-63.055c-22.308-16.557-55.317-28.441-89.358-28.441zm2.108.795v12.5c0 6.875-.338 12.433-.75 12.351-.413-.081-4.425-1.397-8.914-2.923-12.856-4.37-26.032-6.177-42.13-5.776-11.224.28-13.6.109-12.189-.879 2.964-2.072 19.068-8.265 26.983-10.375 8.225-2.192 26.053-4.848 32.75-4.879z"/><g id="g2110" transform="translate(-464.8 -374.488)" style="fill:#533d5b;fill-opacity:1"><path d="M1345.207 1029.05c.458-2.087 1.127-2.898 2.088-2.529 4.39 1.685 10.175-5.448 8.815-10.869-1-3.983-2.827-4.89-6.269-3.11-2.284 1.181-3.098 1.255-3.435.313-1.285-3.597-3.477 5.44-3.642 15.015-.085 4.927 1.456 5.67 2.443 1.18zm.971-5.952c-1.116-1.805 2.83-8.478 5.013-8.478 1.624 0 1.972.616 1.85 3.277-.083 1.803-.7 3.94-1.373 4.75-1.406 1.694-4.562 1.953-5.49.451zm-67.55 3.04c1.882-.54 3.785-1.552 4.228-2.25 1.345-2.12.935-6.793-.65-7.401-1.2-.46-1.061-.914.73-2.364 1.885-1.527 2.067-2.219 1.218-4.649-.83-2.374-1.8-3.01-5.757-3.777-2.908-.564-5.11-.564-5.658 0-.892.917-3.048 14.353-3.048 18.995 0 1.983.505 2.428 2.757 2.428 1.516 0 4.297-.442 6.18-.982zm-5.923-3.268c.043-3.943 1.314-5.75 4.044-5.75 3.372 0 4.345 1.26 3.517 4.556-.503 2.006-1.236 2.444-4.094 2.444-2.125 0-3.476-.487-3.467-1.25zm1.356-10c.332-1.238.609-2.813.617-3.5.014-1.326 2.795-1.655 5.431-.643 3.548 1.361.316 6.393-4.106 6.393-2.151 0-2.452-.348-1.942-2.25zm18.306 12.764c1.886-1.32 2.187-1.313 2.716.063 1.133 2.953 2.455.37 3.154-6.164.443-4.13.32-6.947-.33-7.597-1.395-1.396-7.397.621-9.822 3.3-2.28 2.519-2.518 9.56-.371 10.919 1.956 1.236 2.18 1.211 4.653-.521zm-3.349-3.105c-.96-2.5 2.313-8.41 4.657-8.41 2.47 0 2.668 2.84.49 7.05-1.662 3.216-4.18 3.88-5.147 1.36zm20.126 3.43c3.616-1.647 3.156-2.586-1.203-2.453-3.196.097-3.798-.227-4.077-2.194-.513-3.622 2.52-7.484 5.44-6.926 2.911.556 4.09-.774 1.813-2.048-4.112-2.3-9.134 1.209-10.081 7.045-.444 2.736-.104 3.978 1.543 5.624 2.437 2.438 3.095 2.533 6.565.952zm7.382-1.918c.564-4.08 1.811-4.23 4.12-.494 2.22 3.593 4.05 4.645 4.039 2.323 0-.688-.891-2.592-1.972-4.232l-1.966-2.981 3.168-3.269c2.957-3.05 3.023-3.268.995-3.268-1.214 0-2.895 1.102-3.81 2.5-2.61 3.982-3.425 2.945-2.751-3.5.517-4.944.363-6-.872-6-1.132 0-1.663 1.774-2.171 7.25-.37 3.987-.952 8.997-1.293 11.133-.49 3.064-.325 3.785.78 3.421.769-.253 1.549-1.55 1.733-2.883zm17.345 1.668c2.351-1.227 2.754-1.205 3.283.174 1.08 2.817 2.342-.068 3.066-7.013.61-5.84.486-6.75-.912-6.75-1.136 0-1.617.907-1.617 3.05 0 4.367-2.624 8.95-5.124 8.95-1.944 0-2.029-.373-1.376-6 .57-4.913.432-6-.764-6-1.888 0-3.23 10.208-1.714 13.04 1.246 2.329 1.662 2.373 5.158.55zm43.643-1.996c1.769-1.74 2.569-4.125 3.354-10.001.567-4.245.79-7.96.494-8.255-1.263-1.263-2.597 1.038-3.15 5.436-1.124 8.92-2.404 12.16-5.071 12.829-4.679 1.174-5.683-.961-4.896-10.413.58-6.948.46-8.362-.675-7.99-2.096.686-3.588 15.107-1.891 18.278 2.211 4.132 7.696 4.186 11.835.116zm10.272 2.698c4.045 2.526 10.041-5.63 8.54-11.614-.805-3.203-2.733-3.858-6.148-2.086l-2.762 1.433.618-4.512c.493-3.597.318-4.512-.862-4.512-.814 0-1.497.337-1.517.75-.02.412-.615 5.142-1.323 10.51-1.278 9.69-1.145 11.643.67 9.828.594-.593 1.63-.518 2.784.203zm-1.095-4.341c0-3.376 2.93-8.11 4.796-7.751 3.97.764 1.74 9.8-2.417 9.8-1.731 0-2.379-.557-2.379-2.049zm21.14 3.105 2.36-1.944-4.463.194c-3.422.15-4.541-.185-4.8-1.435-.241-1.167.63-1.81 3.076-2.27 1.877-.351 4.186-1.494 5.131-2.539 1.63-1.8 1.614-2.004-.324-3.941-4.648-4.648-12.583 2.901-10.05 9.561 1.806 4.754 5.126 5.622 9.07 2.374zm-6.14-7.855c0-1.414 2.345-3.2 4.2-3.2 2.374 0 2.298 1.663-.134 2.964-2.31 1.237-4.066 1.339-4.066.236zm13.205 4.721c.535-3.229 1.608-5.163 3.976-7.171 2.922-2.478 3.03-2.75 1.09-2.75-1.184 0-2.46.498-2.837 1.106-.477.773-.936.7-1.517-.241-1.456-2.355-2.659.3-3.397 7.499-.562 5.488-.437 6.775.624 6.421.73-.243 1.658-2.432 2.06-4.864zm14.592 2.085c1.474-2.59 2.28-2.994 5.978-3 3.952-.01 4.32.22 4.875 2.994.33 1.65 1.219 3 1.975 3s1.375-.239 1.375-.53c0-1.868-5.366-21.467-5.873-21.455-1.848.045-3.465 2.463-7.584 11.338-5.03 10.836-4.967 10.647-3.496 10.647.575 0 1.813-1.347 2.75-2.994zm3.203-5.546c0-.297.98-2.435 2.18-4.75 2.115-4.089 2.199-4.138 2.9-1.71 1.583 5.49 1.135 7-2.08 7-1.65 0-3-.243-3-.54zm16.156 4.465c.389-1.884 1.016-6.688 1.393-10.675.57-6.031.438-7.25-.788-7.25-1.1 0-1.644 1.833-2.146 7.25-.37 3.987-.952 8.997-1.293 11.133-.485 3.035-.32 3.783.753 3.425.756-.252 1.692-2 2.081-3.883zm7.53-4.502c1.605-10.735 1.595-13.423-.048-13.423-.946 0-1.573 2.059-2.053 6.75-.38 3.712-.962 8.723-1.293 11.134-.48 3.497-.316 4.292.804 3.923.901-.296 1.828-3.3 2.589-8.384zm12.453 6.632 2.361-1.944-4.463.194c-3.422.15-4.541-.185-4.8-1.435-.241-1.167.63-1.81 3.076-2.27 1.877-.351 4.186-1.494 5.131-2.538 1.63-1.802 1.614-2.005-.324-3.942-4.648-4.648-12.583 2.901-10.05 9.562 1.806 4.753 5.126 5.621 9.07 2.373zm-6.139-7.855c0-1.413 2.345-3.2 4.2-3.2 2.374 0 2.298 1.663-.134 2.965-2.31 1.236-4.066 1.338-4.066.235zm16.778 8.243c2.687-1.883 2.976-6.237.472-7.13-4.944-1.763-4.734-5.51.256-4.557 2.9.555 3.425-1.28.579-2.024-2.981-.78-6.548 1.498-6.887 4.398-.243 2.07.303 2.835 2.75 3.848 3.4 1.408 3.729 2.215 1.616 3.969-1.047.869-1.979.901-3.44.12-2.537-1.359-3.87.4-1.395 1.84 2.437 1.42 3.473 1.34 6.049-.464zm-168.366-41.489c10.63-3.283 16.588-9.918 16.588-18.472 0-7.456-4.845-12.755-14.75-16.13-5.555-1.894-6.177-2.305-3.51-2.326 3.942-.032 12.294-3.106 16.773-6.175 4.486-3.074 6.487-6.81 6.487-12.108 0-6.302-3.142-10.564-10.5-14.243-5.892-2.947-6.278-3-21.5-3-16.405 0-20.07.58-35.683 5.642-8.788 2.85-17.317 7.724-17.317 9.895 0 2.206 3.008 1.939 10.16-.902 9.762-3.878 16.988-5.14 29.274-5.113 7.779.017 11.034.46 14.324 1.954 12.11 5.497 4.253 19.814-11.928 21.73-4.987.59-5.05.564-4.315-1.803.41-1.322 2-5.052 3.532-8.29 1.532-3.237 2.55-6.5 2.262-7.25-1.206-3.144-19.693-.779-25.95 3.32-3.894 2.553-8.095 10.023-13.52 24.046-5.917 15.292-8.4 18.63-14.589 19.617-2.68.427-4.25 1.2-4.25 2.093 0 2.17 4.72 5.4 10.32 7.063 6.507 1.932 20.643 1.958 25.221.045 3.124-1.305 4.211-1.26 10.718.445 10.061 2.637 23.546 2.62 32.153-.038zm-34.917-7.963c-.36-.582 1.024-6.668 3.074-13.525 4.173-13.953 4.113-13.901 12.527-10.933 6.24 2.202 8.904 5.043 8.904 9.493 0 5.034-3.553 10.019-9.001 12.628-5.258 2.519-14.528 3.916-15.504 2.337zm95.002 7.924c3.065-1.147 7.585-3.622 10.046-5.5 2.461-1.878 4.696-3.415 4.966-3.415.27 0 .491 1.1.491 2.444 0 1.344 1.077 3.696 2.392 5.225 2.145 2.494 3.164 2.82 9.874 3.159 8.057.407 21.931-2.417 26.461-5.385 3.099-2.03 2.566-4.523-1.227-5.74-4.483-1.44-6.5-3.652-6.5-7.128 0-4.698 3.385-15.98 9.504-31.673 3.023-7.754 5.496-15.379 5.496-16.944 0-4.637-3.032-5.958-13.675-5.958-11.663 0-13.901.949-14.75 6.254-.354 2.22-3.802 12.136-7.662 22.038-3.859 9.902-7.527 20.216-8.151 22.92-1.247 5.4-2.205 6.215-8.545 7.265-3.247.538-4.91.299-6.877-.99-2.345-1.537-2.54-2.147-2.039-6.38.785-6.63 3.982-15.506 11.325-31.439 3.506-7.607 6.374-14.322 6.374-14.921 0-.6-.745-1.913-1.655-2.919-3.264-3.606-26.291-1.647-35.243 2.998-4.755 2.468-4.73 5.127.072 7.388 2.02.951 3.92 2.13 4.223 2.617.301.489-1.29 4.664-3.537 9.279-10.931 22.448-12.98 34.79-7.106 42.81 4.55 6.214 15.339 7.888 25.744 3.995zm135.704.961c11.285-2.392 16.489-7.437 9.206-8.927-1.695-.347-3.605-.954-4.244-1.349-1.949-1.204-1.327-6.83 2.41-21.794 6.525-26.134 4.736-36.08-7.257-40.358-5.18-1.847-19.712-1.791-27.897.107-7.636 1.77-19.419 6.821-19.419 8.323 0 1.895 1.69 2.034 11.377.933 11.178-1.27 16.674-.254 18.295 3.38 1.55 3.47-.27 10.852-6.812 27.644-8.51 21.842-8.796 28.537-1.36 31.779 3.725 1.624 18.563 1.775 25.7.262zm-54.2-1.186 3.5-1.197-.34-7.003c-.474-9.776 1.727-15.234 6.437-15.963 1.871-.29 5.09-.794 7.152-1.119 6.125-.966 10.315-3.077 9.633-4.853-.466-1.215-2.23-1.555-8.056-1.555h-7.46l4.817-6.137c2.649-3.375 7.707-8.787 11.24-12.026 4.734-4.341 6.13-6.184 5.305-7.008-3.737-3.738-29.46 15.45-40.803 30.438-7.204 9.52-9.978 16.509-9.532 24.015.058.98 1.119 2.19 2.356 2.687 3.19 1.281 11.622 1.132 15.75-.279z" style="fill:#533d5b;fill-opacity:1" id="path2094"/></g><path id="path185" style="fill:#fd9000" d="M909.48 312.291c-34.04 0-60.066 11.063-81.416 27.895-21.349 16.831-38.021 39.431-38.021 64.697 0 .677.038 1.366.053 2.049 2.225-26.442 19.38-54.332 44.7-71.18 24.734-16.457 50.911-23.522 82.792-22.342 20.909.774 38.014 4.785 55.5 13.018l7 3.297-14-.41c-16.806-.491-30.194 1.295-43.986 5.869l-9.514 3.154.021 8.125.024 8.123 7.133 4c8.099 4.543 20.17 15.35 26.078 23.348 4.868 6.59 11.139 19.737 13.226 27.732 1.74 6.665 3.498 20.516 3.51 27.67l.008 4.75h14.305l-.602-11.75c-1.107-21.61-6.52-38.95-16.844-53.953-4.782-6.95-17.148-19.564-23.408-23.875-2.999-2.065-5.451-4.06-5.451-4.432 0-.372 4.388-1.535 9.75-2.584 7.104-1.39 13.685-1.876 24.25-1.797 15.53.117 23.857 1.468 37.082 6.014 6.84 2.351 8.048 3.182 12.35 8.496 6.544 8.085 13.048 19.797 16.011 28.828.927 2.823 1.633 5.613 2.262 8.39-2.307-21.61-13.656-39.995-33.455-54.69-22.308-16.558-55.317-28.442-89.357-28.442zm114.01 138.816c-13.88 22.2-40.431 38.703-76.504 45.059-11.547 2.035-42.604 3.382-52.898 2.295-36.851-3.89-65.028-15.643-82.787-33.67 3.426 3.984 7.27 7.632 11.56 10.816 22.308 16.558 55.317 24.059 89.358 24.059 34.04 0 70.885-10.241 93.193-26.799 8.13-6.034 13.945-13.498 18.078-21.76z"/></g></g></svg>